<svg width="332" height="537" viewBox="0 0 332 537" fill="none" xmlns="http://www.w3.org/2000/svg">
<path fill-rule="evenodd" clip-rule="evenodd" d="M0 35C0 15.67 15.6699 0 35 0H297C316.33 0 332 15.67 332 35V263.008C323.671 263.272 317 270.107 317 278.5C317 286.893 323.671 293.728 332 293.992V532C332 533.945 330.89 535.63 329.269 536.457C327.633 532.1 323.428 529 318.5 529C313.369 529 309.023 532.36 307.542 537H302.458C300.977 532.36 296.631 529 291.5 529C286.369 529 282.023 532.36 280.542 537H274.458C272.977 532.36 268.631 529 263.5 529C258.369 529 254.023 532.36 252.542 537H247.458C245.977 532.36 241.631 529 236.5 529C231.369 529 227.023 532.36 225.542 537H219.458C217.977 532.36 213.631 529 208.5 529C203.369 529 199.023 532.36 197.542 537H192.434C190.889 532.36 186.354 529 181 529C175.646 529 171.111 532.36 169.566 537H163.434C161.889 532.36 157.354 529 152 529C146.646 529 142.111 532.36 140.566 537H135.434C133.889 532.36 129.354 529 124 529C118.646 529 114.111 532.36 112.566 537H106.458C104.977 532.36 100.631 529 95.5 529C90.3691 529 86.0229 532.36 84.5422 537H79.4578C77.9771 532.36 73.6309 529 68.5 529C63.3691 529 59.0229 532.36 57.5422 537H51.4578C49.9771 532.36 45.6309 529 40.5 529C35.3691 529 31.0229 532.36 29.5422 537H24.4578C22.9771 532.36 18.6309 529 13.5 529C8.57153 529 4.36743 532.1 2.73096 536.457C1.11011 535.63 0 533.945 0 532V293.799C7.37158 292.604 13 286.209 13 278.5C13 270.791 7.37158 264.396 0 263.201V35Z" fill="white"/>
<line x1="13" y1="278.5" x2="317" y2="278.5" stroke="#BABABA" stroke-dasharray="4 10"/>
<path d="M147.391 458V442H153.703C154.917 442 155.951 442.232 156.805 442.695C157.659 443.154 158.31 443.792 158.758 444.609C159.211 445.422 159.438 446.359 159.438 447.422C159.438 448.484 159.208 449.422 158.75 450.234C158.292 451.047 157.628 451.68 156.758 452.133C155.893 452.586 154.846 452.812 153.617 452.812H149.594V450.102H153.07C153.721 450.102 154.258 449.99 154.68 449.766C155.107 449.536 155.424 449.221 155.633 448.82C155.846 448.414 155.953 447.948 155.953 447.422C155.953 446.891 155.846 446.427 155.633 446.031C155.424 445.63 155.107 445.32 154.68 445.102C154.253 444.878 153.711 444.766 153.055 444.766H150.773V458H147.391ZM164.672 458.227C163.906 458.227 163.224 458.094 162.625 457.828C162.026 457.557 161.552 457.159 161.203 456.633C160.859 456.102 160.688 455.44 160.688 454.648C160.688 453.982 160.81 453.422 161.055 452.969C161.299 452.516 161.633 452.151 162.055 451.875C162.477 451.599 162.956 451.391 163.492 451.25C164.034 451.109 164.602 451.01 165.195 450.953C165.893 450.88 166.456 450.812 166.883 450.75C167.31 450.682 167.62 450.583 167.813 450.453C168.005 450.323 168.102 450.13 168.102 449.875V449.828C168.102 449.333 167.945 448.951 167.633 448.68C167.326 448.409 166.888 448.273 166.32 448.273C165.721 448.273 165.245 448.406 164.891 448.672C164.536 448.932 164.302 449.26 164.188 449.656L161.109 449.406C161.266 448.677 161.573 448.047 162.031 447.516C162.49 446.979 163.081 446.568 163.805 446.281C164.534 445.99 165.378 445.844 166.336 445.844C167.003 445.844 167.641 445.922 168.25 446.078C168.865 446.234 169.409 446.477 169.883 446.805C170.362 447.133 170.74 447.555 171.016 448.07C171.292 448.581 171.43 449.193 171.43 449.906V458H168.273V456.336H168.18C167.987 456.711 167.729 457.042 167.406 457.328C167.083 457.609 166.695 457.831 166.242 457.992C165.789 458.148 165.266 458.227 164.672 458.227ZM165.625 455.93C166.115 455.93 166.547 455.833 166.922 455.641C167.297 455.443 167.591 455.177 167.805 454.844C168.018 454.51 168.125 454.133 168.125 453.711V452.438C168.021 452.505 167.878 452.568 167.695 452.625C167.518 452.677 167.318 452.727 167.094 452.773C166.87 452.815 166.646 452.854 166.422 452.891C166.198 452.922 165.995 452.951 165.813 452.977C165.422 453.034 165.081 453.125 164.789 453.25C164.497 453.375 164.271 453.544 164.109 453.758C163.948 453.966 163.867 454.227 163.867 454.539C163.867 454.992 164.031 455.339 164.359 455.578C164.693 455.812 165.115 455.93 165.625 455.93ZM175.637 462.5C175.215 462.5 174.819 462.466 174.449 462.398C174.085 462.336 173.783 462.255 173.543 462.156L174.293 459.672C174.684 459.792 175.035 459.857 175.348 459.867C175.665 459.878 175.939 459.805 176.168 459.648C176.402 459.492 176.592 459.227 176.738 458.852L176.934 458.344L172.629 446H176.129L178.613 454.812H178.738L181.246 446H184.77L180.105 459.297C179.882 459.943 179.577 460.505 179.191 460.984C178.811 461.469 178.329 461.841 177.746 462.102C177.163 462.367 176.46 462.5 175.637 462.5Z" fill="white"/>
</svg>
